<?xml version="1.0" encoding="utf-8"?>
<!-- Generator: Adobe Illustrator 21.0.0, SVG Export Plug-In . SVG Version: 6.00 Build 0)  -->
<svg version="1.1" id="Layer_1" xmlns="http://www.w3.org/2000/svg" xmlns:xlink="http://www.w3.org/1999/xlink" x="0px" y="0px"
	 viewBox="0 0 17.4 15" style="enable-background:new 0 0 17.4 15;" xml:space="preserve">
<style type="text/css">
	.st0{fill:#2EC0E5;}
	.st1{fill:#FFFFFF;}
</style>
<g>
	<g>
		<g>
			<path class="st0" d="M14.6,2.3h-4.1c-1,0-1.8-0.8-1.8-1.8C8.7,0.3,8.4,0,8.2,0H2.8C1.3,0,0,1.3,0,2.8v9.3C0,13.7,1.3,15,2.8,15
				h11.8c1.5,0,2.8-1.3,2.8-2.8v-7C17.4,3.6,16.1,2.3,14.6,2.3L14.6,2.3z M16.4,12.2c0,1-0.8,1.8-1.8,1.8H2.8c-1,0-1.8-0.8-1.8-1.8
				V2.8C1,1.8,1.8,1,2.8,1h4.9C8,2.3,9.1,3.3,10.5,3.3h4.1c1,0,1.8,0.8,1.8,1.8V12.2z M16.4,12.2"/>
		</g>
	</g>
	<path class="st0" d="M11.1,7.7c-0.2,0.2-0.4,0.2-0.6,0L9.1,6.3v4.5c0,0.2-0.2,0.4-0.4,0.4h0c-0.2,0-0.4-0.2-0.4-0.4V6.3L6.9,7.7
		c-0.2,0.2-0.4,0.2-0.6,0c-0.2-0.2-0.2-0.4,0-0.6L8.4,5c0.1-0.1,0.2-0.1,0.3-0.1c0.1,0,0.2,0,0.3,0.1l2.1,2.1
		C11.2,7.2,11.2,7.5,11.1,7.7z"/>
</g>
<path class="st1" d="M19.2,9.9"/>
</svg>
