<?xml version="1.0" encoding="utf-8"?>
<!-- Generator: Adobe Illustrator 21.0.0, SVG Export Plug-In . SVG Version: 6.00 Build 0)  -->
<svg version="1.1" id="Layer_1" xmlns="http://www.w3.org/2000/svg" xmlns:xlink="http://www.w3.org/1999/xlink" x="0px" y="0px"
	 viewBox="0 0 15 15" style="enable-background:new 0 0 15 15;" xml:space="preserve">
<style type="text/css">
	.st0{fill:#2EC0E5;}
</style>
<g>
	<path class="st0" d="M14.2,5.9l-1.1-0.2c-0.1-0.4-0.3-0.7-0.4-1l0.6-0.9c0.3-0.4,0.2-0.9-0.1-1.2l-0.9-0.9
		c-0.2-0.2-0.4-0.3-0.7-0.3c-0.2,0-0.4,0.1-0.5,0.2l-0.9,0.6C9.9,2.1,9.6,1.9,9.2,1.8L9,0.8C9,0.3,8.6,0,8.1,0H6.8
		C6.3,0,6,0.3,5.9,0.8L5.7,1.8C5.4,1.9,5,2.1,4.7,2.3L3.8,1.6C3.7,1.5,3.5,1.5,3.3,1.5C3,1.5,2.8,1.6,2.6,1.7L1.7,2.7
		C1.4,3,1.3,3.5,1.6,3.9l0.6,0.9c-0.2,0.3-0.3,0.7-0.4,1l-1,0.2C0.3,6,0,6.4,0,6.9v1.3C0,8.6,0.3,9,0.8,9.1l1.1,0.2
		c0.1,0.4,0.3,0.7,0.4,1l-0.6,0.9c-0.3,0.4-0.2,0.9,0.1,1.2l0.9,0.9c0.2,0.2,0.4,0.3,0.7,0.3c0.2,0,0.4-0.1,0.5-0.2l0.9-0.6
		c0.3,0.2,0.6,0.3,1,0.4l0.2,1.1C6,14.6,6.4,15,6.8,15h1.3c0.5,0,0.8-0.3,0.9-0.8l0.2-1.1c0.4-0.1,0.7-0.3,1-0.4l0.9,0.6
		c0.2,0.1,0.3,0.2,0.5,0.2c0.2,0,0.5-0.1,0.7-0.3l0.9-0.9c0.3-0.3,0.4-0.8,0.1-1.2l-0.6-0.9c0.2-0.3,0.3-0.7,0.4-1l1.1-0.2
		C14.6,9,15,8.6,15,8.1V6.8C15,6.4,14.6,6,14.2,5.9L14.2,5.9z M14.1,8.1C14.1,8.2,14.1,8.2,14.1,8.1l-1.4,0.3
		c-0.2,0-0.3,0.2-0.3,0.3c-0.1,0.5-0.3,0.9-0.5,1.3c-0.1,0.1-0.1,0.3,0,0.5l0.8,1.1c0,0,0,0.1,0,0.1l-0.9,0.9c0,0,0,0-0.1,0
		c0,0,0,0,0,0l-1.1-0.8c-0.1-0.1-0.3-0.1-0.5,0c-0.4,0.2-0.9,0.4-1.3,0.5c-0.2,0-0.3,0.2-0.3,0.3l-0.2,1.3c0,0,0,0.1-0.1,0.1H6.8
		c0,0-0.1,0-0.1-0.1l-0.2-1.3c0-0.2-0.2-0.3-0.3-0.3c-0.4-0.1-0.9-0.3-1.3-0.5c-0.1,0-0.1-0.1-0.2-0.1c-0.1,0-0.2,0-0.2,0.1
		l-1.1,0.8c0,0,0,0,0,0c0,0,0,0-0.1,0l-0.9-0.9c0,0,0-0.1,0-0.1l0.8-1.1c0.1-0.1,0.1-0.3,0-0.5C2.9,9.7,2.7,9.2,2.6,8.8
		c0-0.2-0.2-0.3-0.3-0.3L0.9,8.3c0,0-0.1,0-0.1-0.1V6.9c0,0,0-0.1,0.1-0.1l1.3-0.2c0.2,0,0.3-0.2,0.3-0.3c0.1-0.5,0.3-0.9,0.5-1.3
		c0.1-0.1,0.1-0.3,0-0.5L2.3,3.4c0,0,0-0.1,0-0.1l0.9-0.9c0,0,0,0,0.1,0c0,0,0,0,0,0l1.1,0.8c0.1,0.1,0.3,0.1,0.5,0
		c0.4-0.2,0.8-0.4,1.3-0.6c0.2,0,0.3-0.2,0.3-0.3l0.2-1.3c0,0,0-0.1,0.1-0.1h1.3c0,0,0.1,0,0.1,0.1l0.2,1.3c0,0.2,0.2,0.3,0.3,0.3
		c0.5,0.1,0.9,0.3,1.3,0.6c0.1,0.1,0.3,0.1,0.5,0l1.1-0.8c0,0,0,0,0,0c0,0,0,0,0.1,0l0.9,0.9c0,0,0,0.1,0,0.1l-0.8,1.1
		c-0.1,0.1-0.1,0.3,0,0.5c0.2,0.4,0.4,0.9,0.5,1.3c0,0.2,0.2,0.3,0.3,0.3l1.3,0.2c0,0,0.1,0,0.1,0.1L14.1,8.1L14.1,8.1z M14.1,8.1"
		/>
	<path class="st0" d="M7.5,4.3c-1.8,0-3.2,1.4-3.2,3.2c0,1.8,1.4,3.2,3.2,3.2c1.8,0,3.2-1.4,3.2-3.2C10.7,5.7,9.3,4.3,7.5,4.3z
		 M7.5,9.9c-1.3,0-2.4-1.1-2.4-2.4s1.1-2.4,2.4-2.4c1.3,0,2.4,1.1,2.4,2.4S8.8,9.9,7.5,9.9z"/>
</g>
</svg>
