<?xml version="1.0" encoding="utf-8"?>
<!-- Generator: Adobe Illustrator 21.0.0, SVG Export Plug-In . SVG Version: 6.00 Build 0)  -->
<svg version="1.1" id="Layer_1" xmlns="http://www.w3.org/2000/svg" xmlns:xlink="http://www.w3.org/1999/xlink" x="0px" y="0px"
	 viewBox="0 0 11 16" style="enable-background:new 0 0 11 16;" xml:space="preserve">
<style type="text/css">
	.st0{fill:#1B2139;}
</style>
<g>
	<path class="st0" d="M5.5,16c-0.2,0-0.3-0.1-0.4-0.2C4.9,15.5,0,8.4,0,5.5C0,2.5,2.5,0,5.5,0S11,2.5,11,5.5c0,2.9-4.9,10-5.1,10.3
		C5.8,15.9,5.7,16,5.5,16z M5.5,1C3,1,1,3,1,5.5c0,2,3,6.8,4.5,9.1C7.1,12.3,10,7.5,10,5.5C10,3,8,1,5.5,1z"/>
	<path class="st0" d="M5.5,8.5C4.1,8.5,3,7.4,3,6s1.1-2.5,2.5-2.5C6.9,3.4,8,4.6,8,6S6.9,8.5,5.5,8.5z M5.5,4.4C4.7,4.4,4,5.1,4,6
		s0.7,1.5,1.5,1.5C6.4,7.5,7,6.8,7,6S6.4,4.4,5.5,4.4z"/>
</g>
</svg>
