<?xml version="1.0" encoding="utf-8"?>
<!-- Generator: Adobe Illustrator 21.0.0, SVG Export Plug-In . SVG Version: 6.00 Build 0)  -->
<svg version="1.1" id="Layer_1" xmlns="http://www.w3.org/2000/svg" xmlns:xlink="http://www.w3.org/1999/xlink" x="0px" y="0px"
	 viewBox="0 0 8.9 15" style="enable-background:new 0 0 8.9 15;" xml:space="preserve">
<style type="text/css">
	.st0{fill:#2EC0E5;}
</style>
<path class="st0" d="M4,14.8C4.2,14.9,4.3,15,4.5,15c0.2,0,0.3-0.1,0.4-0.2L8.8,11c0.2-0.2,0.2-0.6,0-0.9c-0.2-0.2-0.6-0.2-0.9,0
	l-2.8,2.8V0.6C5.1,0.3,4.8,0,4.5,0C4.1,0,3.9,0.3,3.9,0.6v12.3L1,10.1c-0.2-0.2-0.6-0.2-0.9,0c-0.2,0.2-0.2,0.6,0,0.9L4,14.8z
	 M4,14.8"/>
</svg>
