<?xml version="1.0" encoding="utf-8"?>
<!-- Generator: Adobe Illustrator 21.0.0, SVG Export Plug-In . SVG Version: 6.00 Build 0)  -->
<svg version="1.1" id="Layer_1" xmlns="http://www.w3.org/2000/svg" xmlns:xlink="http://www.w3.org/1999/xlink" x="0px" y="0px"
	 viewBox="0 0 15 15" style="enable-background:new 0 0 15 15;" xml:space="preserve">
<style type="text/css">
	.st0{fill:#2EC0E5;}
</style>
<g>
	<path class="st0" d="M14,1c-1.3-1.3-3.4-1.3-4.7,0L0.8,9.6C0.7,9.6,0.7,9.7,0.6,9.8L0,14.5c0,0.1,0,0.3,0.1,0.4
		C0.2,15,0.3,15,0.4,15c0,0,0,0,0.1,0l2.8-0.4c0.2,0,0.4-0.2,0.4-0.5c0-0.2-0.2-0.4-0.5-0.4l-2.3,0.3l0.4-3.3l3.5,3.5
		c0.1,0.1,0.2,0.1,0.3,0.1c0.1,0,0.2,0,0.3-0.1L14,5.7c0.6-0.6,1-1.5,1-2.3S14.7,1.6,14,1z M1.7,9.9L9.5,2L11,3.5l-7.8,7.8L1.7,9.9z
		 M5.2,13.3l-1.4-1.4l7.8-7.8L13,5.5L5.2,13.3z M13.6,4.9l-3.5-3.5c0.4-0.4,1-0.6,1.6-0.6c0.7,0,1.3,0.3,1.7,0.7
		c0.5,0.5,0.7,1.1,0.7,1.7C14.2,3.9,14,4.4,13.6,4.9z"/>
</g>
</svg>
