<?xml version="1.0" encoding="utf-8"?>
<!-- Generator: Adobe Illustrator 21.0.0, SVG Export Plug-In . SVG Version: 6.00 Build 0)  -->
<svg version="1.1" id="Layer_1" xmlns="http://www.w3.org/2000/svg" xmlns:xlink="http://www.w3.org/1999/xlink" x="0px" y="0px"
	 viewBox="0 0 26 26" style="enable-background:new 0 0 26 26;" xml:space="preserve">
<style type="text/css">
	.st0{fill:#1B2139;}
	.st1{fill:#FFFFFF;}
</style>
<g>
	<path class="st0" d="M13,1C6.4,1,1,6.4,1,13s5.4,12,12,12s12-5.4,12-12S19.6,1,13,1z"/>
	<path class="st1" d="M13,1c6.6,0,12,5.4,12,12s-5.4,12-12,12S1,19.6,1,13S6.4,1,13,1 M13,0C5.8,0,0,5.8,0,13s5.8,13,13,13
		s13-5.8,13-13S20.2,0,13,0L13,0z"/>
</g>
<circle class="st1" cx="13" cy="12.7" r="3.5"/>
</svg>
