<?xml version="1.0" encoding="utf-8"?>
<!-- Generator: Adobe Illustrator 21.0.0, SVG Export Plug-In . SVG Version: 6.00 Build 0)  -->
<svg version="1.1" id="Layer_1" xmlns="http://www.w3.org/2000/svg" xmlns:xlink="http://www.w3.org/1999/xlink" x="0px" y="0px"
	 viewBox="0 0 26 26" style="enable-background:new 0 0 26 26;" xml:space="preserve">
<style type="text/css">
	.st0{fill:#2EC0E5;}
	.st1{fill:#FFFFFF;}
</style>
<path class="st0" d="M13,0C5.8,0,0,5.8,0,13s5.8,13,13,13s13-5.8,13-13S20.2,0,13,0z"/>
<path class="st1" d="M12.6,5.7c0.1-0.1,0.3-0.2,0.4-0.2c0.2,0,0.3,0.1,0.4,0.2l3.9,3.9c0.2,0.2,0.2,0.6,0,0.9
	c-0.2,0.2-0.6,0.2-0.9,0l-2.8-2.8v12.3c0,0.3-0.3,0.6-0.6,0.6s-0.6-0.3-0.6-0.6V7.6l-2.8,2.8c-0.2,0.2-0.6,0.2-0.9,0
	c-0.2-0.2-0.2-0.6,0-0.9L12.6,5.7z M12.6,5.7"/>
</svg>
